<?xml version="1.0" standalone="no"?>
<!DOCTYPE svg PUBLIC "-//W3C//DTD SVG 20010904//EN"
 "http://www.w3.org/TR/2001/REC-SVG-20010904/DTD/svg10.dtd">
<svg version="1.0" xmlns="http://www.w3.org/2000/svg"
 width="512.000000pt" height="512.000000pt" viewBox="0 0 512.000000 512.000000"
 preserveAspectRatio="xMidYMid meet">
<metadata>
Created by potrace 1.14, written by Peter Selinger 2001-2017
</metadata>
<g transform="translate(0.000000,512.000000) scale(0.100000,-0.100000)"
fill="#000000" stroke="none">
<path d="M2038 5075 c-2 -1 -42 -5 -91 -9 -228 -15 -528 -98 -717 -199 -202
-107 -356 -229 -506 -402 -283 -326 -481 -809 -569 -1385 -4 -25 -9 -53 -11
-64 -2 -10 -6 -44 -9 -75 -4 -31 -8 -63 -10 -71 -6 -24 -17 -164 -32 -405 -5
-66 -8 -494 -8 -952 l0 -831 35 -49 c49 -68 86 -100 155 -133 55 -26 107 -39
161 -40 12 0 35 -14 53 -30 71 -68 205 -130 282 -130 15 0 49 -14 74 -31 45
-30 123 -62 181 -74 34 -7 172 -7 183 -1 4 3 25 -13 47 -35 43 -45 105 -85
156 -100 88 -27 209 -16 306 27 55 24 56 24 101 7 71 -28 232 -24 290 6 64 34
126 103 151 169 68 181 100 442 76 617 -27 197 -89 358 -238 617 -181 317
-245 485 -252 665 -7 178 66 296 233 378 86 43 195 75 306 91 22 3 54 8 70 10
17 3 50 7 75 10 25 2 52 6 60 9 8 2 40 7 70 10 141 16 471 93 530 125 24 13
103 9 335 -14 39 -4 81 -9 95 -11 14 -2 90 -13 170 -25 79 -12 147 -23 150
-25 3 -2 26 -6 50 -10 25 -3 52 -8 60 -10 35 -10 282 -45 365 -52 170 -14 448
-7 540 14 136 30 173 77 161 202 -13 132 -90 275 -213 398 -115 115 -170 156
-458 347 -302 200 -366 253 -460 376 -111 146 -319 321 -457 385 -21 9 -54 33
-75 53 -232 219 -589 459 -806 542 -28 11 -61 25 -72 29 -100 45 -248 73 -402
76 -73 2 -133 2 -135 0z"/>
</g>
</svg>
